<svg xmlns="http://www.w3.org/2000/svg" viewBox="0 0 64 64"><defs><style>.cls-1{fill:#754c24;}.cls-2{fill:#ccc;}.cls-3{fill:gray;}.cls-4{fill:#29abe2;}.cls-5{fill:#666;}.cls-6{fill:#999;}</style></defs><g id="Layer_34" data-name="Layer 34"><rect class="cls-1" x="19.24" y="37" width="6.16" height="14"/><path class="cls-2" d="M15.26,12V35h31V26.75h-14V30a.76.76,0,0,1-.75.75H18.24a.75.75,0,0,1-.75-.75V16a.75.75,0,0,1,.75-.75H31.49a.76.76,0,0,1,.75.75v3.25h14V12Z"/><rect class="cls-2" x="32.24" y="20.75" width="14.05" height="4.5"/><path class="cls-2" d="M40.65,5v5h6.64a1,1,0,0,1,1,1V29h3.59a1,1,0,0,1,1,1V51H57V5Z"/><path class="cls-3" d="M13.26,36V31H7V51H17.24V37C16.2,36.84,13.22,37.59,13.26,36Z"/><path class="cls-3" d="M48.29,31v5a1,1,0,0,1-1,1H41.67V51h9.21V31Z"/><rect class="cls-3" x="27.39" y="37" width="12.27" height="14"/><rect class="cls-4" x="25.1" y="16.75" width="5.64" height="5.5"/><rect class="cls-4" x="25.1" y="23.75" width="5.64" height="5.5"/><rect class="cls-4" x="18.99" y="23.75" width="4.62" height="5.5"/><rect class="cls-4" x="18.99" y="16.75" width="4.62" height="5.5"/><rect class="cls-5" x="27.39" y="37" width="19.9" height="2"/><polygon class="cls-6" points="55 5 40.65 5 40.65 7 55 7 55 51 57 51 57 7 57 5 55 5"/><path class="cls-6" d="M15.26,12v2h29V35h2V12h-31Z"/><path d="M63,51H59V4a1,1,0,0,0-1-1H39.65a1,1,0,0,0-1,1v6H14.26a1,1,0,0,0-1,1V29H6a1,1,0,0,0-1,1V51H1a1,1,0,0,0,0,2H63A1,1,0,0,0,63,51ZM15.26,30V12h31v7.25h-14V16a.76.76,0,0,0-.75-.75H18.24a.75.75,0,0,0-.75.75V30a.75.75,0,0,0,.75.75H31.49a.76.76,0,0,0,.75-.75V26.75h14V35h-31Zm31-9.25v4.5h-14v-4.5ZM25.1,22.25v-5.5h5.64v5.5Zm5.64,1.5v5.5H25.1v-5.5ZM19,22.25v-5.5H23.6v5.5Zm4.61,1.5v5.5H19v-5.5ZM7,51V31h6.26v5c0,1.59,2.94.84,4,1V51Zm12.24,0V37h6.15V51Zm8.15,0V37H39.67V51Zm14.28,0V37h5.62a1,1,0,0,0,1-1V31h2.59V51Zm11.21,0V30a1,1,0,0,0-1-1H48.29V11a1,1,0,0,0-1-1H40.65V5H57V51Z"/></g></svg>